Coordinates
version=1
nRows=29
nColumns=24
inDegrees=yes

Units are S.I. units (second, meters, Newtons, ...)
If the header above contains a line with 'inDegrees', this indicates whether rotational values are in degrees (yes) or radians (no).

endheader
time	pelvis_tilt	pelvis_list	pelvis_rotation	pelvis_tx	pelvis_ty	pelvis_tz	hip_flexion_r	hip_adduction_r	hip_rotation_r	knee_angle_r	ankle_angle_r	subtalar_angle_r	mtp_angle_r	hip_flexion_l	hip_adduction_l	hip_rotation_l	knee_angle_l	ankle_angle_l	subtalar_angle_l	mtp_angle_l	lumbar_extension	lumbar_bending	lumbar_rotation
4.950000	8.046312	2.515935	-179.032649	0.271723	0.588190	-1.212185	62.788028	-28.333414	-11.773386	-99.066577	38.229017	7.702609	0.000000	66.932411	-33.410995	-5.475900	-98.436923	38.273634	16.285320	0.000000	-11.158267	1.610550	2.384660
4.955000	8.052579	2.518659	-179.042101	0.271791	0.588177	-1.212232	62.745805	-28.285894	-11.565381	-98.972411	38.579765	8.584498	0.000000	66.946030	-33.432965	-5.482489	-98.443662	38.280086	16.325897	0.000000	-11.144267	1.625396	2.408046
4.960000	8.010872	2.491934	-179.016195	0.271815	0.588272	-1.212291	62.751773	-28.359433	-11.784220	-99.061038	38.208850	7.684180	0.000000	66.879686	-33.414969	-5.516668	-98.420000	38.279478	16.354813	0.000000	-11.176008	1.603869	2.400589
4.965000	8.011488	2.477562	-178.995243	0.271888	0.588363	-1.212340	62.688334	-28.350338	-11.633003	-98.934380	38.547355	8.406902	0.000000	66.871272	-33.405310	-5.541857	-98.390935	38.239548	16.378416	0.000000	-11.167862	1.603473	2.395066
4.970000	7.941335	2.451498	-178.968209	0.271869	0.588594	-1.212386	62.651528	-28.425469	-11.812979	-99.020867	38.191690	7.762476	0.000000	66.756617	-33.391579	-5.589856	-98.341381	38.234725	16.392157	0.000000	-11.230309	1.582643	2.376610
4.975000	7.959525	2.456628	-178.969987	0.271939	0.588810	-1.212455	62.596882	-28.374481	-11.670954	-98.875902	38.542087	8.435591	0.000000	66.761471	-33.397820	-5.594916	-98.295607	38.192904	16.401188	0.000000	-11.188462	1.592683	2.427041
4.980000	7.927332	2.446016	-178.938891	0.271972	0.589149	-1.212546	62.576227	-28.439084	-11.884109	-98.935798	38.188845	7.718781	0.000000	66.689321	-33.378750	-5.625821	-98.221551	38.175928	16.409959	0.000000	-11.208277	1.584492	2.396858
4.985000	7.948337	2.447122	-178.934862	0.272081	0.589487	-1.212660	62.498926	-28.401712	-11.767183	-98.750565	38.515495	8.464540	0.000000	66.675248	-33.383936	-5.658970	-98.131108	38.129842	16.434704	0.000000	-11.164794	1.591354	2.436964
4.990000	7.918432	2.404379	-178.893156	0.272110	0.589971	-1.212700	62.457292	-28.487077	-11.957297	-98.754785	38.169172	7.794911	0.000000	66.555942	-33.342613	-5.753147	-98.020860	38.096588	16.480916	0.000000	-11.180942	1.565711	2.373469
4.995000	7.956618	2.385080	-178.881067	0.272191	0.590407	-1.212768	62.393832	-28.451189	-11.807807	-98.547293	38.484684	8.485481	0.000000	66.526080	-33.328478	-5.825234	-97.908940	38.038661	16.509831	0.000000	-11.125328	1.561118	2.342219
5.000000	7.925367	2.383867	-178.861218	0.272188	0.590974	-1.212795	62.342260	-28.496951	-12.046987	-98.556859	38.079728	7.758819	0.000000	66.424400	-33.326984	-5.878419	-97.802711	38.001085	16.541377	0.000000	-11.130953	1.577430	2.326336
5.005000	7.965050	2.395295	-178.898154	0.272261	0.591562	-1.212802	62.272563	-28.428700	-11.942890	-98.335905	38.342394	8.458165	0.000000	66.385589	-33.359854	-5.943272	-97.687295	37.940325	16.523720	0.000000	-11.064200	1.605431	2.388520
5.010000	7.916127	2.343245	-178.883073	0.272232	0.592324	-1.212835	62.200111	-28.493013	-12.125858	-98.311440	37.978805	7.771303	0.000000	66.192193	-33.335077	-6.078633	-97.539021	37.890465	16.540456	0.000000	-11.091867	1.554931	2.367258
5.015000	8.086186	2.395360	-178.786687	0.272979	0.593352	-1.213511	62.177668	-28.357253	-12.152544	-97.959551	38.159567	8.221129	0.000000	66.375613	-33.291880	-6.035306	-97.420927	37.818077	16.716539	0.000000	-10.974780	1.538321	2.317651
5.020000	7.944037	2.349374	-178.878746	0.272345	0.594032	-1.213153	61.983248	-28.427896	-12.289629	-97.932721	37.874604	7.837454	0.000000	65.997780	-33.392747	-6.269555	-97.355392	37.951144	16.821671	0.000000	-11.010806	1.552055	2.375760
5.025000	8.122902	2.358906	-178.739464	0.273125	0.595195	-1.213648	61.971765	-28.370465	-12.278777	-97.554480	38.091734	8.431761	0.000000	66.141864	-33.196656	-6.196250	-96.820900	37.448777	16.646072	0.000000	-10.882573	1.505219	2.276568
5.030000	8.127394	2.347319	-178.754477	0.273087	0.596258	-1.213637	61.913655	-28.385949	-12.526598	-97.462850	37.625332	7.679607	0.000000	65.984471	-33.210055	-6.331273	-96.617374	37.355173	16.666006	0.000000	-10.835846	1.501656	2.310917
5.035000	8.073278	2.330820	-178.866856	0.272591	0.597187	-1.213243	61.686445	-28.346634	-12.365163	-97.164914	37.959551	8.628603	0.000000	65.694770	-33.312478	-6.550642	-96.505230	37.407679	16.749588	0.000000	-10.785403	1.555915	2.400341
5.040000	8.223317	2.365669	-178.757972	0.273171	0.598676	-1.213742	61.690755	-28.317991	-12.763805	-96.949697	37.391792	7.656324	0.000000	65.751749	-33.192260	-6.543574	-96.106095	37.131838	16.700140	0.000000	-10.663766	1.548223	2.317873
5.045000	8.228981	2.320350	-178.785297	0.273182	0.599980	-1.213756	61.496686	-28.268606	-12.628833	-96.560752	37.675318	8.518195	0.000000	65.526420	-33.191750	-6.751776	-95.840312	37.032538	16.777363	0.000000	-10.628224	1.515908	2.325690
5.050000	8.134039	2.257403	-178.840294	0.272675	0.601228	-1.213389	61.308153	-28.360062	-12.836984	-96.443873	37.226449	7.843973	0.000000	65.135637	-33.220621	-7.030063	-95.657429	37.038939	16.849292	0.000000	-10.623012	1.524004	2.334264
5.055000	8.158610	2.300264	-178.849173	0.272673	0.602823	-1.213509	61.046995	-28.241963	-12.820331	-95.994419	37.489060	8.690107	0.000000	64.660086	-33.281108	-7.461021	-95.232186	37.561688	16.943890	0.000000	-10.552958	1.572012	2.348774
5.060000	8.133398	2.278812	-178.841189	0.272531	0.604591	-1.213520	60.857467	-28.278025	-13.141508	-95.778833	36.971258	7.928824	0.000000	64.685332	-33.250626	-7.376033	-95.174915	37.023249	17.033535	0.000000	-10.520899	1.563866	2.311287
5.065000	8.290799	2.191613	-178.794616	0.272789	0.606331	-1.213338	60.783595	-28.295539	-13.014158	-95.265497	37.164501	8.720603	0.000000	64.666521	-32.987887	-6.983879	-94.223401	36.166370	17.650143	0.000000	-10.329792	1.501272	2.241036
5.070000	8.228569	2.222453	-178.811448	0.272622	0.608362	-1.213500	60.480252	-28.242572	-13.387574	-94.974813	36.671928	7.999323	0.000000	64.220784	-33.078150	-7.709552	-94.153231	36.329824	16.890101	0.000000	-10.343717	1.537459	2.237240
5.075000	8.333629	2.149098	-178.784112	0.272739	0.610333	-1.213442	60.306298	-28.232767	-13.296200	-94.424857	36.852826	8.810331	0.000000	64.043677	-32.895633	-7.500708	-93.364277	35.884872	17.579754	0.000000	-10.189439	1.476493	2.203739
5.080000	8.290654	2.242262	-178.804786	0.272559	0.612523	-1.213672	59.978149	-28.115224	-13.742105	-94.103999	36.308972	8.039897	0.000000	63.403390	-33.049664	-8.400551	-93.184925	36.606403	16.983029	0.000000	-10.166716	1.570276	2.235366
5.085000	8.404693	2.165465	-178.793130	0.272639	0.614761	-1.213455	59.796635	-28.101139	-13.655644	-93.506037	36.452767	8.801417	0.000000	63.441635	-32.831529	-8.363007	-92.467676	35.525792	16.605805	0.000000	-10.004036	1.540424	2.183860
5.090000	8.377642	2.115976	-178.791125	0.272507	0.617211	-1.213439	59.539456	-28.106749	-13.967481	-93.147713	35.861866	8.003111	0.000000	63.123066	-32.750755	-8.065050	-91.942807	35.216664	17.726626	0.000000	-9.973610	1.500234	2.149364
